# xmcd
#
# Track frame offsets:
#	150
#	13383
#	28575
#	37770
#	52727
#	67954
#	81589
#	93570
#	103954
#	114926
#	128604
#	140840
#	154723
#	166855
#	178942
#	188876
#	199971
#	209558
#	220755
#	233961
#	246267
#	255154
#	270891
#	285472
#	296814
#	310166
#
# Disc length: 4262 seconds
#
# Revision: 0
# Processed by: cddbd v1.5.2PL0 Copyright (c) Steve Scherf et al.
# Submitted via: audiograbber 1.83.01
#
DISCID=7910a41a
DTITLE=Dick Curless - A Tombstone Every Mile - CD6
DYEAR=1996
DGENRE=Country
TTITLE0=The Heartline Special
TTITLE1=Secret Of Your Heart
TTITLE2=I Ain't Got Nobody
TTITLE3=Bummin' On Track E
TTITLE4=Secret Of Your Heart
TTITLE5=The Wild Side Of Town
TTITLE6=Nobody Knows You When You're Down And Out
TTITLE7=Things
TTITLE8=Easy Woman
TTITLE9=Down On The Corner At Kelly's
TTITLE10=Tonight's The Night My Angels Halo Fell
TTITLE11=Maybe I'll Cry Over You
TTITLE12=It's Nothing To Me
TTITLE13=The Good Old Days
TTITLE14=Over The Edge
TTITLE15=Blue Is A Beautiful Color
TTITLE16=A Good Year For The Wine
TTITLE17=Tears Instead Of Cheers
TTITLE18=All I Need Is You
TTITLE19=A Brand New Bed Of Roses
TTITLE20=Be Here To Love Me
TTITLE21=Kentucky Boy
TTITLE22=Fanning The Flame
TTITLE23=The Sun
TTITLE24=Somebody Else
TTITLE25=Jamaica Farewell
EXTD=
EXTT0=
EXTT1=
EXTT2=
EXTT3=
EXTT4=
EXTT5=
EXTT6=
EXTT7=
EXTT8=
EXTT9=
EXTT10=
EXTT11=
EXTT12=
EXTT13=
EXTT14=
EXTT15=
EXTT16=
EXTT17=
EXTT18=
EXTT19=
EXTT20=
EXTT21=
EXTT22=
EXTT23=
EXTT24=
EXTT25=
PLAYORDER=
